<svg width="20" height="20" viewBox="0 0 20 20" fill="none" xmlns="http://www.w3.org/2000/svg">
<path d="M16.5759 6.21913L7.30254 1.58246C1.07338 -1.53754 -1.48329 1.01913 1.63671 7.2483L2.57921 9.1333C2.85004 9.6858 2.85004 10.325 2.57921 10.8775L1.63671 12.7516C-1.48329 18.9808 1.06254 21.5375 7.30254 18.4175L16.5759 13.7808C20.7359 11.7008 20.7359 8.29913 16.5759 6.21913ZM13.0767 10.8125H7.22671C6.78254 10.8125 6.41421 10.4441 6.41421 9.99996C6.41421 9.5558 6.78254 9.18746 7.22671 9.18746H13.0767C13.5209 9.18746 13.8892 9.5558 13.8892 9.99996C13.8892 10.4441 13.5209 10.8125 13.0767 10.8125Z" fill="#879199"/>
</svg>
